#tb 0: 1/44100
#media_type 0: audio
#codec_id 0: pcm_s16le
#sample_rate 0: 44100
#channel_layout_name 0: stereo
0,          0,          0,     4096,    16384, 0xd1b54d8a
0,       4096,       4096,     4096,    16384, 0xc34f2213
0,       8192,       8192,     4096,    16384, 0xa42d56b9
0,      12288,      12288,     4096,    16384, 0x7f2a46b3
0,      16384,      16384,     4096,    16384, 0xaa87b731
0,      20480,      20480,     4096,    16384, 0x6b01ebad
0,      24576,      24576,     4096,    16384, 0xf3338602
0,      28672,      28672,     4096,    16384, 0xf359a34f
0,      32768,      32768,     4096,    16384, 0x237dfb27
0,      36864,      36864,     4096,    16384, 0x5bd96282
0,      40960,      40960,     4096,    16384, 0xa6312f5a
0,      45056,      45056,     4096,    16384, 0xba2c8e55
0,      49152,      49152,     4096,    16384, 0xa0b6c113
0,      53248,      53248,     4096,    16384, 0x8fb72d52
0,      57344,      57344,     4096,    16384, 0xaaca7dc1
0,      61440,      61440,     4096,    16384, 0x5662a159
0,      65536,      65536,     4096,    16384, 0x33cb0207
0,      69632,      69632,     4096,    16384, 0x64311765
0,      73728,      73728,     4096,    16384, 0x12356782
0,      77824,      77824,     4096,    16384, 0x8752ec74
